# xmcd
#
# Track frame offsets:
# 150
# 14400
# 25925
# 46190
# 58572
# 67065
# 76017
# 85197
# 98085
# 108652
# 119677
# 131297
# 141895
# 155240
# 168710
# 180815
# 190597
# 206420
# 223802
#
# Disc length: 3125 seconds
#
#
# Revision: 0
# Processed by: cddbd v1.5.1PL0 Copyright (c) Steve Scherf et al.
# Submitted via: FreeRIP 2.52 
#
DISCID=060c3313
DTITLE=Various Artist - The Sound Of The Delta
DYEAR=1900
DGENRE=Blues
TTITLE0=Ruby Mc Coy - Black Mary
TTITLE1=Elijah Brown - Won`t Be Troubled Long
TTITLE2=Big Joe Williams - Your Close Friend
TTITLE3=Avery Brady - Goin` Home With My Baby
TTITLE4=Fred Mc Dowell - Kokomo
TTITLE5=Bert Logan -Don`t You Want To Be A Member
TTITLE6=Elijah Brown - Pearlin
TTITLE7=Arthur Weston - Uncle Sam Called Me
TTITLE8=Avery Brady - Bad Weather
TTITLE9=Big Joe Williams - Walkin`Blues
TTITLE10=Ruby Mc Coy - Rising Sun, Shine On
TTITLE11=Arthur Weston - Early In The Morning
TTITLE12=Big Joe Williams - Walking Ground Hog
TTITLE13=Elijah Brown - Winding Ball
TTITLE14=Avery Brady - Uncle Sams Own Ship
TTITLE15=Russ Logan - Annie Mae
TTITLE16=Fred Mc Dowell - Louise
TTITLE17=Avery Brady - Let Me Drive Your Ford
TTITLE18=Andrew Cauthen - Canary Bird
EXTD=
EXTT0=
EXTT1=
EXTT2=
EXTT3=
EXTT4=
EXTT5=
EXTT6=
EXTT7=
EXTT8=
EXTT9=
EXTT10=
EXTT11=
EXTT12=
EXTT13=
EXTT14=
EXTT15=
EXTT16=
EXTT17=
EXTT18=
PLAYORDER=
